<svg width="36" height="36" viewBox="0 0 36 36" fill="none" xmlns="http://www.w3.org/2000/svg">
<g clip-path="url(#clip0_424_16666)">
<path d="M33.75 11.25H29.25C29.25 11.25 27.9495 11.25 27 9C26.5163 7.85475 25.992 6.75 24.75 6.75H15.75C14.508 6.75 13.968 7.848 13.5 9C12.5865 11.25 11.25 11.25 11.25 11.25H9C9 10.6533 8.76295 10.081 8.34099 9.65901C7.91903 9.23705 7.34674 9 6.75 9H4.5C3.90326 9 3.33097 9.23705 2.90901 9.65901C2.48705 10.081 2.25 10.6533 2.25 11.25C1.65326 11.25 1.08097 11.4871 0.65901 11.909C0.237053 12.331 0 12.9033 0 13.5L0 18H12.4987C14.058 15.3202 16.9268 13.5 20.25 13.5C23.5732 13.5 26.442 15.3202 28.0012 18H36V13.5C36 12.9033 35.7629 12.331 35.341 11.909C34.919 11.4871 34.3467 11.25 33.75 11.25ZM7.875 15.75H3.375C3.07663 15.75 2.79048 15.6315 2.5795 15.4205C2.36853 15.2095 2.25 14.9234 2.25 14.625C2.25 14.3266 2.36853 14.0405 2.5795 13.8295C2.79048 13.6185 3.07663 13.5 3.375 13.5H7.875C8.17337 13.5 8.45952 13.6185 8.6705 13.8295C8.88147 14.0405 9 14.3266 9 14.625C9 14.9234 8.88147 15.2095 8.6705 15.4205C8.45952 15.6315 8.17337 15.75 7.875 15.75ZM13.5 22.5C13.5 23.3864 13.6746 24.2642 14.0138 25.0831C14.353 25.9021 14.8502 26.6462 15.477 27.273C16.1038 27.8998 16.8479 28.397 17.6669 28.7362C18.4858 29.0754 19.3636 29.25 20.25 29.25C21.1364 29.25 22.0142 29.0754 22.8331 28.7362C23.6521 28.397 24.3962 27.8998 25.023 27.273C25.6498 26.6462 26.147 25.9021 26.4862 25.0831C26.8254 24.2642 27 23.3864 27 22.5C27 21.6136 26.8254 20.7358 26.4862 19.9169C26.147 19.0979 25.6498 18.3538 25.023 17.727C24.3962 17.1002 23.6521 16.603 22.8331 16.2638C22.0142 15.9246 21.1364 15.75 20.25 15.75C19.3636 15.75 18.4858 15.9246 17.6669 16.2638C16.8479 16.603 16.1038 17.1002 15.477 17.727C14.8502 18.3538 14.353 19.0979 14.0138 19.9169C13.6746 20.7358 13.5 21.6136 13.5 22.5ZM29.25 22.5C29.25 24.8869 28.3018 27.1761 26.614 28.864C24.9261 30.5518 22.6369 31.5 20.25 31.5C17.8631 31.5 15.5739 30.5518 13.886 28.864C12.1982 27.1761 11.25 24.8869 11.25 22.5C11.25 21.7192 11.3805 20.9722 11.5672 20.25H0V31.5C0 32.0967 0.237053 32.669 0.65901 33.091C1.08097 33.5129 1.65326 33.75 2.25 33.75H33.75C34.3467 33.75 34.919 33.5129 35.341 33.091C35.7629 32.669 36 32.0967 36 31.5V20.25H28.9328C29.1195 20.9722 29.25 21.7192 29.25 22.5Z" fill="#F4F4F4"/>
</g>
<defs>
<clipPath id="clip0_424_16666">
<rect width="36" height="36" fill="white"/>
</clipPath>
</defs>
</svg>
