<svg width="28" height="28" viewBox="0 0 28 28" fill="none" xmlns="http://www.w3.org/2000/svg">
<path fill-rule="evenodd" clip-rule="evenodd" d="M4.2881 14.745L8.6801 18.1616L1.48685 25.3549C0.985655 24.6896 0.637961 23.9216 0.468722 23.106L0.467597 23.1049C0.438523 22.9539 0.415255 22.8019 0.397847 22.6492C0.393347 22.6098 0.384347 22.5705 0.379847 22.53C0.360425 22.3345 0.350663 22.1381 0.350597 21.9416V18.6813L4.2881 14.745ZM18.9918 10.8198L27.6498 17.4573V21.9416C27.6515 22.6917 27.5049 23.4347 27.2187 24.128C26.9324 24.8213 26.512 25.4512 25.9816 25.9816C25.4512 26.512 24.8213 26.9324 24.128 27.2187C23.4347 27.5049 22.6917 27.6515 21.9416 27.6498H6.05885C5.88447 27.6498 5.71347 27.6397 5.5436 27.624C5.37466 27.6086 5.20649 27.5857 5.0396 27.5553C4.97547 27.5441 4.91135 27.534 4.84722 27.5194H4.84272C4.60234 27.4654 4.36562 27.3962 4.13397 27.3124L4.0496 27.282C3.69517 27.1483 3.35519 26.979 3.03485 26.7769L18.9918 10.8198ZM10.0807 5.57622C10.2973 5.57442 10.5121 5.61577 10.7125 5.69786C10.913 5.77995 11.095 5.90114 11.2481 6.05434C11.4013 6.20755 11.5223 6.38972 11.6043 6.59021C11.6862 6.79071 11.7274 7.00551 11.7255 7.2221C11.7273 7.43859 11.686 7.65328 11.6039 7.85364C11.5219 8.054 11.4008 8.23603 11.2477 8.38912C11.0947 8.54221 10.9126 8.6633 10.7123 8.74532C10.5119 8.82733 10.2972 8.86865 10.0807 8.86685C9.86413 8.8688 9.64933 8.8276 9.44884 8.74564C9.24834 8.66369 9.06618 8.54263 8.91297 8.38953C8.75976 8.23642 8.63857 8.05434 8.55648 7.8539C8.4744 7.65347 8.43305 7.43869 8.43485 7.2221C8.43485 6.30297 9.1616 5.57622 10.0807 5.57622ZM10.0807 3.47585C9.08863 3.48029 8.13845 3.87645 7.43703 4.57807C6.73561 5.2797 6.33974 6.23 6.3356 7.2221C6.33975 8.21399 6.73569 9.16405 7.43717 9.86532C8.13865 10.5666 9.08883 10.9622 10.0807 10.9661C11.0724 10.962 12.0223 10.5662 12.7235 9.86493C13.4248 9.16369 13.8206 8.21379 13.8247 7.2221C13.8206 6.2302 13.4249 5.28007 12.7237 4.57847C12.0225 3.87687 11.0726 3.48059 10.0807 3.47585ZM6.05885 0.350599H21.9416C22.6916 0.348969 23.4345 0.495466 24.1277 0.781685C24.8209 1.0679 25.4508 1.48821 25.9812 2.01847C26.5115 2.54874 26.932 3.17853 27.2183 3.87169C27.5047 4.56485 27.6513 5.30774 27.6498 6.05772V14.8113L19.5397 8.59347C19.3375 8.43876 19.0861 8.36261 18.8321 8.37916C18.578 8.39571 18.3386 8.50383 18.1582 8.68347L10.1763 16.6653L4.84497 12.5175C4.6491 12.3659 4.40624 12.2878 4.15872 12.297C3.8949 12.3081 3.64482 12.4176 3.45785 12.6041L0.350597 15.7125V6.05772C0.349114 5.30774 0.495758 4.56485 0.782113 3.87169C1.06847 3.17853 1.4889 2.54874 2.01927 2.01847C2.54964 1.48821 3.17951 1.0679 3.87273 0.781685C4.56595 0.495466 5.30887 0.348969 6.05885 0.350599Z" fill="#F4F4F4"/>
</svg>
